<svg xmlns="http://www.w3.org/2000/svg" xmlns:xlink="http://www.w3.org/1999/xlink" width="40" zoomAndPan="magnify" viewBox="0 0 30 30.000001" height="40" preserveAspectRatio="xMidYMid meet" version="1.0"><defs><clipPath id="d124a3824c"><path d="M 21 8 L 29.113281 8 L 29.113281 17 L 21 17 Z M 21 8 " clip-rule="nonzero"/></clipPath><clipPath id="901ee3aaab"><path d="M 15 1.386719 L 24 1.386719 L 24 12 L 15 12 Z M 15 1.386719 " clip-rule="nonzero"/></clipPath><clipPath id="ef043a0717"><path d="M 6 1.386719 L 15 1.386719 L 15 12 L 6 12 Z M 6 1.386719 " clip-rule="nonzero"/></clipPath><clipPath id="95d3d2cf61"><path d="M 5.265625 11.292969 L 25.351562 11.292969 L 25.351562 27.511719 L 5.265625 27.511719 Z M 5.265625 11.292969 " clip-rule="nonzero"/></clipPath><clipPath id="8d5e1bf5ec"><path d="M 0.875 8 L 9 8 L 9 17 L 0.875 17 Z M 0.875 8 " clip-rule="nonzero"/></clipPath></defs><g clip-path="url(#d124a3824c)"><path fill="#ff8f3f" d="M 24.257812 16.96875 C 24.199219 16.960938 24.132812 16.957031 24.074219 16.953125 C 23.390625 16.863281 22.789062 16.53125 22.332031 16.023438 C 21.960938 15.617188 21.714844 15.128906 21.574219 14.554688 C 21.457031 14.105469 21.433594 13.605469 21.507812 13.109375 C 21.621094 12.117188 22.011719 11.179688 22.679688 10.359375 C 22.886719 10.097656 23.128906 9.835938 23.398438 9.605469 C 24.007812 9.09375 24.628906 8.800781 25.300781 8.636719 C 25.746094 8.550781 26.15625 8.519531 26.589844 8.585938 C 27.269531 8.707031 27.839844 9.003906 28.300781 9.511719 C 28.671875 9.917969 28.941406 10.472656 29.046875 11.074219 C 29.117188 11.394531 29.152344 11.707031 29.125 12.019531 L 29.121094 12.113281 C 29.109375 12.207031 29.105469 12.300781 29.09375 12.394531 L 29.089844 12.484375 C 28.996094 13.199219 28.753906 13.867188 28.386719 14.492188 C 28.097656 14.96875 27.746094 15.410156 27.339844 15.785156 C 26.761719 16.296875 26.136719 16.652344 25.464844 16.816406 C 25.042969 16.96875 24.636719 16.996094 24.257812 16.96875 " fill-opacity="1" fill-rule="nonzero"/></g><g clip-path="url(#901ee3aaab)"><path fill="#ff8f3f" d="M 23.222656 7.433594 C 23.035156 8.183594 22.722656 8.835938 22.316406 9.398438 C 21.910156 9.960938 21.472656 10.363281 20.941406 10.675781 C 20.503906 10.957031 20.035156 11.113281 19.535156 11.144531 L 19.285156 11.144531 C 18.785156 11.144531 18.316406 11.019531 17.910156 10.738281 C 17.503906 10.519531 17.128906 10.175781 16.816406 9.773438 C 16.378906 9.210938 16.097656 8.523438 15.972656 7.714844 C 15.941406 7.371094 15.910156 7.027344 15.910156 6.65625 C 15.910156 6.375 15.941406 6.09375 15.972656 5.8125 C 16.035156 5.3125 16.160156 4.847656 16.347656 4.378906 C 16.660156 3.597656 17.097656 2.945312 17.660156 2.445312 C 18.066406 2.070312 18.503906 1.789062 18.972656 1.636719 C 19.566406 1.417969 20.160156 1.386719 20.753906 1.542969 C 21.316406 1.667969 21.816406 1.976562 22.253906 2.445312 C 22.628906 2.851562 22.878906 3.289062 23.097656 3.816406 C 23.316406 4.441406 23.441406 5.09375 23.441406 5.84375 C 23.441406 5.96875 23.410156 6.09375 23.410156 6.28125 C 23.378906 6.65625 23.316406 7.058594 23.222656 7.433594 " fill-opacity="1" fill-rule="nonzero"/></g><g clip-path="url(#ef043a0717)"><path fill="#ff8f3f" d="M 14.347656 8.898438 C 14.128906 9.523438 13.816406 10.023438 13.378906 10.425781 C 12.816406 10.957031 12.160156 11.269531 11.410156 11.300781 L 11.222656 11.300781 C 10.847656 11.300781 10.503906 11.207031 10.128906 11.207031 C 9.597656 10.988281 9.128906 10.675781 8.660156 10.238281 C 8.191406 9.773438 7.816406 9.242188 7.535156 8.648438 C 7.128906 7.808594 6.910156 6.933594 6.878906 6 C 6.878906 5.46875 6.910156 4.941406 7.035156 4.472656 C 7.191406 3.816406 7.410156 3.289062 7.753906 2.820312 C 8.316406 2.039062 9.066406 1.605469 9.941406 1.480469 C 9.972656 1.480469 9.972656 1.480469 10.003906 1.480469 L 10.722656 1.480469 C 11.128906 1.542969 11.566406 1.667969 11.941406 1.882812 C 12.441406 2.164062 12.910156 2.570312 13.316406 3.070312 C 13.753906 3.597656 14.066406 4.222656 14.316406 4.910156 C 14.535156 5.53125 14.628906 6.1875 14.660156 6.839844 C 14.660156 7.121094 14.660156 7.402344 14.628906 7.683594 C 14.566406 8.121094 14.472656 8.523438 14.347656 8.898438 " fill-opacity="1" fill-rule="nonzero"/></g><g clip-path="url(#95d3d2cf61)"><path fill="#ff8f3f" d="M 6.476562 19.4375 C 6.882812 18.84375 7.382812 18.285156 7.976562 17.785156 C 8.382812 17.410156 8.789062 17.003906 9.132812 16.570312 C 9.507812 16.101562 9.851562 15.601562 10.132812 15.167969 L 10.351562 14.824219 C 10.570312 14.480469 10.789062 14.167969 11.007812 13.824219 C 11.351562 13.328125 11.664062 12.921875 12.007812 12.609375 C 12.601562 12.046875 13.289062 11.675781 14.070312 11.488281 C 14.570312 11.363281 15.101562 11.332031 15.601562 11.332031 C 16.070312 11.332031 16.539062 11.425781 16.976562 11.613281 C 17.507812 11.828125 17.976562 12.171875 18.476562 12.640625 C 18.757812 12.921875 19.070312 13.265625 19.382812 13.667969 C 19.695312 14.074219 19.976562 14.480469 20.257812 14.886719 L 20.414062 15.136719 C 20.789062 15.632812 21.164062 16.195312 21.601562 16.695312 C 21.976562 17.128906 22.320312 17.472656 22.664062 17.785156 C 23.101562 18.160156 23.539062 18.59375 23.882812 19.0625 C 24.382812 19.71875 24.757812 20.433594 25.007812 21.152344 C 25.164062 21.652344 25.257812 22.148438 25.289062 22.648438 C 25.320312 23.085938 25.289062 23.554688 25.195312 23.957031 C 24.945312 25.113281 24.351562 26.046875 23.382812 26.734375 C 22.820312 27.136719 22.195312 27.386719 21.476562 27.449219 C 21.382812 27.480469 21.320312 27.480469 21.226562 27.480469 L 20.757812 27.480469 C 20.476562 27.480469 20.195312 27.449219 19.976562 27.417969 C 19.351562 27.292969 18.726562 27.136719 18.164062 26.980469 L 18.132812 26.980469 C 17.601562 26.859375 17.070312 26.703125 16.539062 26.609375 C 16.320312 26.578125 16.039062 26.515625 15.757812 26.515625 C 15.382812 26.515625 15.039062 26.515625 14.726562 26.546875 C 14.289062 26.609375 13.789062 26.703125 13.257812 26.828125 C 13.007812 26.890625 12.726562 26.980469 12.476562 27.042969 C 12.132812 27.136719 11.757812 27.230469 11.382812 27.324219 C 11.007812 27.417969 10.601562 27.511719 10.164062 27.511719 L 9.414062 27.511719 C 9.351562 27.511719 9.320312 27.480469 9.257812 27.386719 C 9.070312 27.386719 8.851562 27.355469 8.664062 27.292969 C 8.164062 27.167969 7.664062 26.949219 7.195312 26.609375 C 6.570312 26.171875 6.070312 25.609375 5.757812 24.957031 C 5.414062 24.238281 5.257812 23.492188 5.289062 22.648438 C 5.320312 22.179688 5.414062 21.652344 5.601562 21.152344 C 5.789062 20.558594 6.070312 20 6.476562 19.4375 " fill-opacity="1" fill-rule="nonzero"/></g><g clip-path="url(#8d5e1bf5ec)"><path fill="#ff8f3f" d="M 1.007812 11.074219 C 1.113281 10.472656 1.382812 9.917969 1.757812 9.511719 C 2.21875 9.003906 2.789062 8.707031 3.46875 8.585938 C 3.902344 8.519531 4.3125 8.550781 4.757812 8.636719 C 5.429688 8.800781 6.050781 9.09375 6.65625 9.605469 C 6.929688 9.835938 7.167969 10.097656 7.378906 10.359375 C 8.042969 11.179688 8.433594 12.117188 8.550781 13.109375 C 8.621094 13.605469 8.601562 14.105469 8.480469 14.554688 C 8.339844 15.128906 8.101562 15.617188 7.726562 16.023438 C 7.265625 16.53125 6.664062 16.863281 5.984375 16.953125 C 5.921875 16.957031 5.859375 16.960938 5.796875 16.96875 C 5.421875 16.996094 5.011719 16.96875 4.59375 16.816406 C 3.921875 16.652344 3.296875 16.296875 2.71875 15.785156 C 2.3125 15.410156 1.960938 14.96875 1.671875 14.492188 C 1.304688 13.867188 1.0625 13.199219 0.972656 12.484375 L 0.960938 12.394531 C 0.957031 12.300781 0.945312 12.207031 0.941406 12.113281 L 0.929688 12.019531 C 0.90625 11.707031 0.941406 11.394531 1.007812 11.074219 " fill-opacity="1" fill-rule="nonzero"/></g></svg>