<?xml version="1.0" encoding="UTF-8"?>
<svg xmlns="http://www.w3.org/2000/svg" xmlns:xlink="http://www.w3.org/1999/xlink" width="30px" height="30px" viewBox="0 0 30 30" version="1.1">
<defs>
<clipPath id="clip1">
  <path d="M 0.808594 8 L 9 8 L 9 17 L 0.808594 17 Z M 0.808594 8 "/>
</clipPath>
<clipPath id="clip2">
  <path d="M 6 1.386719 L 15 1.386719 L 15 12 L 6 12 Z M 6 1.386719 "/>
</clipPath>
<clipPath id="clip3">
  <path d="M 15 1.386719 L 24 1.386719 L 24 12 L 15 12 Z M 15 1.386719 "/>
</clipPath>
<clipPath id="clip4">
  <path d="M 4.636719 11.292969 L 24.722656 11.292969 L 24.722656 27.511719 L 4.636719 27.511719 Z M 4.636719 11.292969 "/>
</clipPath>
<clipPath id="clip5">
  <path d="M 21 8 L 29.113281 8 L 29.113281 17 L 21 17 Z M 21 8 "/>
</clipPath>
</defs>
<g id="surface1">
<g clip-path="url(#clip1)" clip-rule="nonzero">
<path style=" stroke:none;fill-rule:nonzero;fill:rgb(0%,0%,0%);fill-opacity:1;" d="M 5.730469 16.96875 C 5.792969 16.960938 5.855469 16.957031 5.917969 16.953125 C 6.597656 16.863281 7.199219 16.53125 7.65625 16.023438 C 8.027344 15.617188 8.273438 15.128906 8.414062 14.554688 C 8.53125 14.105469 8.554688 13.605469 8.480469 13.109375 C 8.367188 12.117188 7.976562 11.179688 7.308594 10.359375 C 7.101562 10.097656 6.859375 9.835938 6.589844 9.605469 C 5.980469 9.09375 5.359375 8.800781 4.6875 8.636719 C 4.246094 8.550781 3.832031 8.519531 3.402344 8.585938 C 2.71875 8.707031 2.148438 9.003906 1.6875 9.511719 C 1.316406 9.917969 1.046875 10.472656 0.941406 11.074219 C 0.871094 11.394531 0.839844 11.707031 0.863281 12.019531 L 0.871094 12.113281 C 0.878906 12.207031 0.886719 12.300781 0.894531 12.394531 L 0.902344 12.484375 C 0.992188 13.199219 1.234375 13.867188 1.601562 14.492188 C 1.890625 14.96875 2.246094 15.410156 2.652344 15.785156 C 3.226562 16.296875 3.851562 16.652344 4.523438 16.816406 C 4.945312 16.96875 5.355469 16.996094 5.730469 16.96875 "/>
</g>
<g clip-path="url(#clip2)" clip-rule="nonzero">
<path style=" stroke:none;fill-rule:nonzero;fill:rgb(0%,0%,0%);fill-opacity:1;" d="M 6.765625 7.433594 C 6.953125 8.183594 7.265625 8.835938 7.671875 9.398438 C 8.078125 9.960938 8.515625 10.363281 9.046875 10.675781 C 9.484375 10.957031 9.953125 11.113281 10.453125 11.144531 L 10.703125 11.144531 C 11.203125 11.144531 11.671875 11.019531 12.078125 10.738281 C 12.484375 10.519531 12.859375 10.175781 13.171875 9.773438 C 13.609375 9.210938 13.890625 8.523438 14.015625 7.714844 C 14.046875 7.371094 14.078125 7.027344 14.078125 6.65625 C 14.078125 6.375 14.046875 6.09375 14.015625 5.8125 C 13.953125 5.3125 13.828125 4.847656 13.640625 4.378906 C 13.328125 3.597656 12.890625 2.945312 12.328125 2.445312 C 11.921875 2.070312 11.484375 1.789062 11.015625 1.636719 C 10.421875 1.417969 9.828125 1.386719 9.234375 1.542969 C 8.671875 1.667969 8.171875 1.976562 7.734375 2.445312 C 7.359375 2.851562 7.109375 3.289062 6.890625 3.816406 C 6.671875 4.441406 6.546875 5.09375 6.546875 5.84375 C 6.546875 5.96875 6.578125 6.09375 6.578125 6.28125 C 6.609375 6.65625 6.671875 7.058594 6.765625 7.433594 "/>
</g>
<g clip-path="url(#clip3)" clip-rule="nonzero">
<path style=" stroke:none;fill-rule:nonzero;fill:rgb(0%,0%,0%);fill-opacity:1;" d="M 15.640625 8.898438 C 15.859375 9.523438 16.171875 10.023438 16.609375 10.425781 C 17.171875 10.957031 17.828125 11.269531 18.578125 11.300781 L 18.765625 11.300781 C 19.140625 11.300781 19.484375 11.207031 19.859375 11.207031 C 20.390625 10.988281 20.859375 10.675781 21.328125 10.238281 C 21.796875 9.773438 22.171875 9.242188 22.453125 8.648438 C 22.859375 7.808594 23.078125 6.933594 23.109375 6 C 23.109375 5.46875 23.078125 4.941406 22.953125 4.472656 C 22.796875 3.816406 22.578125 3.289062 22.234375 2.820312 C 21.671875 2.039062 20.921875 1.605469 20.046875 1.480469 C 20.015625 1.480469 20.015625 1.480469 19.984375 1.480469 L 19.265625 1.480469 C 18.859375 1.542969 18.421875 1.667969 18.046875 1.882812 C 17.546875 2.164062 17.078125 2.570312 16.671875 3.070312 C 16.234375 3.597656 15.921875 4.222656 15.671875 4.910156 C 15.453125 5.53125 15.359375 6.1875 15.328125 6.839844 C 15.328125 7.121094 15.328125 7.402344 15.359375 7.683594 C 15.421875 8.121094 15.515625 8.523438 15.640625 8.898438 "/>
</g>
<g clip-path="url(#clip4)" clip-rule="nonzero">
<path style=" stroke:none;fill-rule:nonzero;fill:rgb(0%,0%,0%);fill-opacity:1;" d="M 23.515625 19.4375 C 23.109375 18.84375 22.609375 18.285156 22.015625 17.785156 C 21.609375 17.410156 21.203125 17.003906 20.859375 16.570312 C 20.484375 16.101562 20.140625 15.601562 19.859375 15.167969 L 19.640625 14.824219 C 19.421875 14.480469 19.203125 14.167969 18.984375 13.824219 C 18.640625 13.328125 18.328125 12.921875 17.980469 12.609375 C 17.386719 12.046875 16.703125 11.675781 15.921875 11.488281 C 15.417969 11.363281 14.890625 11.332031 14.386719 11.332031 C 13.917969 11.332031 13.449219 11.425781 13.011719 11.613281 C 12.480469 11.828125 12.011719 12.171875 11.511719 12.640625 C 11.230469 12.921875 10.917969 13.265625 10.605469 13.667969 C 10.292969 14.074219 10.011719 14.480469 9.730469 14.886719 L 9.574219 15.136719 C 9.199219 15.632812 8.824219 16.195312 8.386719 16.695312 C 8.011719 17.128906 7.667969 17.472656 7.324219 17.785156 C 6.886719 18.160156 6.449219 18.59375 6.105469 19.0625 C 5.605469 19.71875 5.230469 20.433594 4.980469 21.152344 C 4.824219 21.652344 4.730469 22.148438 4.699219 22.648438 C 4.667969 23.085938 4.699219 23.554688 4.792969 23.957031 C 5.042969 25.113281 5.636719 26.046875 6.605469 26.734375 C 7.167969 27.136719 7.792969 27.386719 8.511719 27.449219 C 8.605469 27.480469 8.667969 27.480469 8.761719 27.480469 L 9.230469 27.480469 C 9.511719 27.480469 9.792969 27.449219 10.011719 27.417969 C 10.636719 27.292969 11.261719 27.136719 11.824219 26.980469 L 11.855469 26.980469 C 12.386719 26.859375 12.917969 26.703125 13.449219 26.609375 C 13.667969 26.578125 13.949219 26.515625 14.230469 26.515625 C 14.605469 26.515625 14.949219 26.515625 15.261719 26.546875 C 15.699219 26.609375 16.199219 26.703125 16.730469 26.828125 C 16.984375 26.890625 17.265625 26.980469 17.515625 27.042969 C 17.859375 27.136719 18.234375 27.230469 18.609375 27.324219 C 18.984375 27.417969 19.390625 27.511719 19.828125 27.511719 L 20.578125 27.511719 C 20.640625 27.511719 20.671875 27.480469 20.734375 27.386719 C 20.921875 27.386719 21.140625 27.355469 21.328125 27.292969 C 21.828125 27.167969 22.328125 26.949219 22.796875 26.609375 C 23.421875 26.171875 23.921875 25.609375 24.234375 24.957031 C 24.578125 24.238281 24.734375 23.492188 24.703125 22.648438 C 24.671875 22.179688 24.578125 21.652344 24.390625 21.152344 C 24.203125 20.558594 23.921875 20 23.515625 19.4375 "/>
</g>
<g clip-path="url(#clip5)" clip-rule="nonzero">
<path style=" stroke:none;fill-rule:nonzero;fill:rgb(0%,0%,0%);fill-opacity:1;" d="M 28.980469 11.074219 C 28.875 10.472656 28.605469 9.917969 28.230469 9.511719 C 27.769531 9.003906 27.203125 8.707031 26.519531 8.585938 C 26.085938 8.519531 25.675781 8.550781 25.230469 8.636719 C 24.558594 8.800781 23.9375 9.09375 23.332031 9.605469 C 23.0625 9.835938 22.820312 10.097656 22.609375 10.359375 C 21.945312 11.179688 21.554688 12.117188 21.4375 13.109375 C 21.367188 13.605469 21.390625 14.105469 21.507812 14.554688 C 21.648438 15.128906 21.890625 15.617188 22.265625 16.023438 C 22.722656 16.53125 23.324219 16.863281 24.003906 16.953125 C 24.066406 16.957031 24.128906 16.960938 24.191406 16.96875 C 24.566406 16.996094 24.976562 16.96875 25.394531 16.816406 C 26.066406 16.652344 26.691406 16.296875 27.269531 15.785156 C 27.675781 15.410156 28.027344 14.96875 28.316406 14.492188 C 28.683594 13.867188 28.925781 13.199219 29.015625 12.484375 L 29.027344 12.394531 C 29.03125 12.300781 29.042969 12.207031 29.046875 12.113281 L 29.058594 12.019531 C 29.082031 11.707031 29.046875 11.394531 28.980469 11.074219 "/>
</g>
</g>
</svg>
