<svg xmlns="http://www.w3.org/2000/svg" xmlns:xlink="http://www.w3.org/1999/xlink" width="150" zoomAndPan="magnify" viewBox="0 0 112.5 97.5" height="130" preserveAspectRatio="xMidYMid meet" version="1.0"><defs><clipPath id="08e8ec0d48"><path d="M 1.429688 5.796875 L 110.371094 5.796875 L 110.371094 90.863281 L 1.429688 90.863281 Z M 1.429688 5.796875 " clip-rule="nonzero"/></clipPath></defs><g clip-path="url(#08e8ec0d48)"><path fill="#ff914d" d="M 34.648438 5.796875 C 16.335938 5.796875 1.4375 20.699219 1.4375 39.011719 L 1.4375 91.199219 L 48.882812 91.199219 L 48.882812 43.753906 L 22.785156 43.753906 L 22.785156 39.011719 C 22.785156 29.855469 28.105469 22.402344 34.648438 22.402344 L 37.019531 22.402344 L 37.019531 5.796875 Z M 96.328125 5.796875 C 78.015625 5.796875 63.117188 20.699219 63.117188 39.011719 L 63.117188 91.199219 L 110.5625 91.199219 L 110.5625 43.753906 L 84.464844 43.753906 L 84.464844 39.011719 C 84.464844 29.855469 89.785156 22.402344 96.328125 22.402344 L 98.699219 22.402344 L 98.699219 5.796875 Z M 96.328125 5.796875 " fill-opacity="1" fill-rule="nonzero"/></g></svg>